<?xml version="1.0" encoding="UTF-8" standalone="no"?>
<!-- Created with Inkscape (http://www.inkscape.org/) -->

<svg
   xmlns:dc="http://purl.org/dc/elements/1.1/"
   xmlns:cc="http://creativecommons.org/ns#"
   xmlns:rdf="http://www.w3.org/1999/02/22-rdf-syntax-ns#"
   xmlns:svg="http://www.w3.org/2000/svg"
   xmlns="http://www.w3.org/2000/svg"
   xmlns:sodipodi="http://sodipodi.sourceforge.net/DTD/sodipodi-0.dtd"
   xmlns:inkscape="http://www.inkscape.org/namespaces/inkscape"
   width="744.09448819"
   height="1052.3622047"
   id="svg3086"
   version="1.1"
   inkscape:version="0.48.2 r9819"
   sodipodi:docname="New document 2">
  <defs
     id="defs3088">
    <radialGradient
       id="SVGID_1_"
       cx="375.37109"
       cy="298.81049"
       r="57.831699"
       gradientTransform="matrix(0.7915,-0.6112,0.6112,0.7915,-237.9798,304.8101)"
       gradientUnits="userSpaceOnUse">
      <stop
         offset="0"
         style="stop-color:#005A9A"
         id="stop8" />
      <stop
         offset="1"
         style="stop-color:#003A61"
         id="stop10" />
    </radialGradient>
    <radialGradient
       id="SVGID_2_"
       cx="379.27539"
       cy="381.58691"
       r="109.5025"
       gradientTransform="matrix(0.7915,-0.6112,0.6112,0.7915,-237.9798,304.8101)"
       gradientUnits="userSpaceOnUse">
      <stop
         offset="0"
         style="stop-color:#005A9A"
         id="stop15" />
      <stop
         offset="1"
         style="stop-color:#003A61"
         id="stop17" />
    </radialGradient>
  </defs>
  <sodipodi:namedview
     id="base"
     pagecolor="#ffffff"
     bordercolor="#666666"
     borderopacity="1.0"
     inkscape:pageopacity="0.0"
     inkscape:pageshadow="2"
     inkscape:zoom="0.35"
     inkscape:cx="375"
     inkscape:cy="520"
     inkscape:document-units="px"
     inkscape:current-layer="layer1"
     showgrid="false"
     inkscape:window-width="479"
     inkscape:window-height="457"
     inkscape:window-x="0"
     inkscape:window-y="49"
     inkscape:window-maximized="0" />
  <metadata
     id="metadata3091">
    <rdf:RDF>
      <cc:Work
         rdf:about="">
        <dc:format>image/svg+xml</dc:format>
        <dc:type
           rdf:resource="http://purl.org/dc/dcmitype/StillImage" />
        <dc:title></dc:title>
      </cc:Work>
    </rdf:RDF>
  </metadata>
  <g
     inkscape:label="Layer 1"
     inkscape:groupmode="layer"
     id="layer1">
    <g
       transform="translate(81.219348,157.87253)"
       id="g3">
      <path
         style="fill:#f15a29;fill-rule:evenodd"
         inkscape:connector-curvature="0"
         clip-rule="evenodd"
         d="m 280.002,292.159 c -4.824,0.337 -9.701,1.065 -14.302,2.895 -71.02,28.175 -76.327,105.485 -49.965,153.272 6.785,12.313 15.411,25.426 30.694,36.171 2.87,3.538 6.674,6.524 11.568,8.794 -34.529,-11.025 -61.913,-40.978 -76.009,-72.276 -10.861,-24.114 -12.822,-57.598 -2.239,-81.721 15.276,-34.82 65.693,-61.975 100.253,-47.135 z"
         id="path5" />
      <radialGradient
         id="radialGradient3071"
         cx="375.37109"
         cy="298.81049"
         r="57.831699"
         gradientTransform="matrix(0.7915,-0.6112,0.6112,0.7915,-237.9798,304.8101)"
         gradientUnits="userSpaceOnUse">
        <stop
           offset="0"
           style="stop-color:#005A9A"
           id="stop3073" />
        <stop
           offset="1"
           style="stop-color:#003A61"
           id="stop3075" />
      </radialGradient>
      <path
         style="fill:url(#SVGID_1_);fill-rule:evenodd"
         inkscape:connector-curvature="0"
         clip-rule="evenodd"
         d="m 202.515,307.587 c 32.076,-27.479 75.336,-29.64 96.597,-4.815 2.667,3.109 4.864,6.495 6.599,10.096 7.112,-29.371 -0.269,-55.822 -45.214,-55.107 -16.266,4.73 -31.811,12.914 -45.507,24.649 -19.565,16.772 -32.551,38.374 -38.709,61.537 5.069,-13.094 13.94,-25.82 26.234,-36.36 z"
         id="path12" />
      <radialGradient
         id="radialGradient3078"
         cx="379.27539"
         cy="381.58691"
         r="109.5025"
         gradientTransform="matrix(0.7915,-0.6112,0.6112,0.7915,-237.9798,304.8101)"
         gradientUnits="userSpaceOnUse">
        <stop
           offset="0"
           style="stop-color:#005A9A"
           id="stop3080" />
        <stop
           offset="1"
           style="stop-color:#003A61"
           id="stop3082" />
      </radialGradient>
      <path
         style="fill:url(#SVGID_2_);fill-rule:evenodd"
         inkscape:connector-curvature="0"
         clip-rule="evenodd"
         d="m 329.923,349.386 c -9.146,15.341 -19.626,29.804 -28.759,45.128 -23.78,39.909 -40.257,100.049 29.636,97.459 -4.087,1.184 -8.222,2.146 -12.381,2.902 -10.879,2.242 -21.974,2.98 -32.97,2.256 -8.884,-0.59 -17.708,-2.146 -26.288,-4.635 -0.217,-0.094 -0.431,-0.195 -0.638,-0.295 -4.893,-2.27 -8.698,-5.256 -11.567,-8.795 -15.959,-19.667 -3.105,-56.489 13.188,-83.808 1.255,-2.104 2.535,-4.195 3.83,-6.274 l 0.068,-0.055 c 8.251,-13.24 17.267,-25.976 25.261,-39.389 7.706,-12.936 14.641,-27.987 18.123,-42.334 7.105,-29.38 -0.267,-55.827 -45.216,-55.112 13.844,-4.019 28.204,-5.521 42.403,-4.585 8.883,0.592 17.713,2.148 26.295,4.649 32.873,14.583 18.362,60.432 -0.985,92.888 z"
         id="path19" />
      <path
         style="fill:#f15a29;fill-rule:evenodd"
         inkscape:connector-curvature="0"
         clip-rule="evenodd"
         d="m 388.578,440.956 c -32.078,27.479 -75.334,29.64 -96.594,4.826 -2.668,-3.123 -4.866,-6.506 -6.601,-10.108 -7.107,29.379 0.265,55.824 45.213,55.107 16.263,-4.727 31.809,-12.91 45.507,-24.647 19.565,-16.771 32.552,-38.375 38.708,-61.533 -5.067,13.089 -13.938,25.815 -26.233,36.355 z"
         id="path21" />
    </g>
  </g>
</svg>
