<?xml version="1.0" encoding="utf-8"?>
<!-- Generator: Adobe Illustrator 15.1.0, SVG Export Plug-In . SVG Version: 6.00 Build 0)  -->
<!DOCTYPE svg PUBLIC "-//W3C//DTD SVG 1.1//EN" "http://www.w3.org/Graphics/SVG/1.1/DTD/svg11.dtd">
<svg version="1.1" id="Layer_1" xmlns="http://www.w3.org/2000/svg" xmlns:xlink="http://www.w3.org/1999/xlink" x="0px" y="0px"
	 width="1000px" height="900px" viewBox="0 0 1000 900" enable-background="new 0 0 1000 900" xml:space="preserve">
<g>
	<path fill-rule="evenodd" clip-rule="evenodd" fill="#F15A29" d="M280.002,292.159c-4.824,0.337-9.701,1.065-14.302,2.895
		c-71.02,28.175-76.327,105.485-49.965,153.272c6.785,12.313,15.411,25.426,30.694,36.171c2.87,3.538,6.674,6.524,11.568,8.794
		c-34.529-11.025-61.913-40.978-76.009-72.276c-10.861-24.114-12.822-57.598-2.239-81.721
		C195.025,304.474,245.442,277.319,280.002,292.159z"/>
	
		<radialGradient id="SVGID_1_" cx="375.3711" cy="298.8105" r="57.8317" gradientTransform="matrix(0.7915 -0.6112 0.6112 0.7915 -237.9798 304.8101)" gradientUnits="userSpaceOnUse">
		<stop  offset="0" style="stop-color:#005A9A"/>
		<stop  offset="1" style="stop-color:#003A61"/>
	</radialGradient>
	<path fill-rule="evenodd" clip-rule="evenodd" fill="url(#SVGID_1_)" d="M202.515,307.587c32.076-27.479,75.336-29.64,96.597-4.815
		c2.667,3.109,4.864,6.495,6.599,10.096c7.112-29.371-0.269-55.822-45.214-55.107c-16.266,4.73-31.811,12.914-45.507,24.649
		c-19.565,16.772-32.551,38.374-38.709,61.537C181.35,330.853,190.221,318.127,202.515,307.587z"/>
	
		<radialGradient id="SVGID_2_" cx="379.2754" cy="381.5869" r="109.5025" gradientTransform="matrix(0.7915 -0.6112 0.6112 0.7915 -237.9798 304.8101)" gradientUnits="userSpaceOnUse">
		<stop  offset="0" style="stop-color:#005A9A"/>
		<stop  offset="1" style="stop-color:#003A61"/>
	</radialGradient>
	<path fill-rule="evenodd" clip-rule="evenodd" fill="url(#SVGID_2_)" d="M329.923,349.386
		c-9.146,15.341-19.626,29.804-28.759,45.128c-23.78,39.909-40.257,100.049,29.636,97.459c-4.087,1.184-8.222,2.146-12.381,2.902
		c-10.879,2.242-21.974,2.98-32.97,2.256c-8.884-0.59-17.708-2.146-26.288-4.635c-0.217-0.094-0.431-0.195-0.638-0.295
		c-4.893-2.27-8.698-5.256-11.567-8.795c-15.959-19.667-3.105-56.489,13.188-83.808c1.255-2.104,2.535-4.195,3.83-6.274l0.068-0.055
		c8.251-13.24,17.267-25.976,25.261-39.389c7.706-12.936,14.641-27.987,18.123-42.334c7.105-29.38-0.267-55.827-45.216-55.112
		c13.844-4.019,28.204-5.521,42.403-4.585c8.883,0.592,17.713,2.148,26.295,4.649C363.781,271.081,349.27,316.93,329.923,349.386z"
		/>
	<path fill-rule="evenodd" clip-rule="evenodd" fill="#F15A29" d="M388.578,440.956c-32.078,27.479-75.334,29.64-96.594,4.826
		c-2.668-3.123-4.866-6.506-6.601-10.108c-7.107,29.379,0.265,55.824,45.213,55.107c16.263-4.727,31.809-12.91,45.507-24.647
		c19.565-16.771,32.552-38.375,38.708-61.533C409.744,417.69,400.873,430.416,388.578,440.956z"/>
</g>
<g>
	<text transform="matrix(1 0 0 1 431.8877 459.9238)" font-family="'BrowalliaUPC-Bold'" font-size="282.5621">enki</text>
	
		<text transform="matrix(1 0 0 1 441.3008 510.7617)" fill="#696969" font-family="'BrowalliaUPC-Bold'" font-size="94.3538" letter-spacing="35">editor</text>
</g>
<g>
	<path fill-rule="evenodd" clip-rule="evenodd" fill="#FFFFFF" d="M292.168,522.205c41.708,0,75.727-4.465,75.727-9.939
		s-34.019-9.939-75.727-9.939c-41.709,0-75.725,4.465-75.725,9.939S250.459,522.205,292.168,522.205z"/>
	<g>
		<path fill-rule="evenodd" clip-rule="evenodd" fill="#FBFBFB" d="M292.168,502.488c40.947,0,74.155,4.359,74.155,9.734
			c0,5.373-33.208,9.732-74.155,9.732c-40.947,0-74.153-4.359-74.153-9.732C218.015,506.848,251.221,502.488,292.168,502.488z"/>
		<path fill-rule="evenodd" clip-rule="evenodd" fill="#F7F7F8" d="M292.168,502.65c40.08,0,72.584,4.266,72.584,9.527
			c0,5.26-32.504,9.527-72.584,9.527c-40.078,0-72.582-4.268-72.582-9.527C219.586,506.916,252.09,502.65,292.168,502.65z"/>
		<path fill-rule="evenodd" clip-rule="evenodd" fill="#F7F7F8" d="M292.168,502.813c39.213,0,71.012,4.174,71.012,9.32
			s-31.799,9.322-71.012,9.322c-39.211,0-71.01-4.176-71.01-9.322S252.957,502.813,292.168,502.813z"/>
		<path fill-rule="evenodd" clip-rule="evenodd" fill="#F5F5F6" d="M292.168,502.975c38.344,0,69.438,4.08,69.438,9.113
			c0,5.035-31.093,9.115-69.438,9.115c-38.342,0-69.438-4.08-69.438-9.115C222.73,507.055,253.826,502.975,292.168,502.975z"/>
		<path fill-rule="evenodd" clip-rule="evenodd" fill="#F2F3F3" d="M292.168,503.135c37.475,0,67.866,3.992,67.866,8.91
			c0,4.92-30.392,8.908-67.866,8.908c-37.476,0-67.866-3.988-67.866-8.908C224.302,507.127,254.692,503.135,292.168,503.135z"/>
		<path fill-rule="evenodd" clip-rule="evenodd" fill="#F1F1F2" d="M292.168,503.297c36.608,0,66.294,3.898,66.294,8.701
			c0,4.807-29.686,8.703-66.294,8.703c-36.606,0-66.295-3.896-66.295-8.703C225.873,507.195,255.562,503.297,292.168,503.297z"/>
		<path fill-rule="evenodd" clip-rule="evenodd" fill="#F1F1F2" d="M292.168,503.459c35.739,0,64.723,3.805,64.723,8.498
			c0,4.689-28.983,8.494-64.723,8.494c-35.74,0-64.723-3.805-64.723-8.494C227.445,507.264,256.428,503.459,292.168,503.459z"/>
		<path fill-rule="evenodd" clip-rule="evenodd" fill="#EEEFEF" d="M292.168,503.623c34.873,0,63.15,3.711,63.15,8.287
			c0,4.58-28.278,8.291-63.15,8.291c-34.871,0-63.151-3.711-63.151-8.291C229.017,507.334,257.297,503.623,292.168,503.623z"/>
		<path fill-rule="evenodd" clip-rule="evenodd" fill="#EDEDEE" d="M292.168,503.785c34.003,0,61.579,3.617,61.579,8.08
			c0,4.465-27.576,8.084-61.579,8.084s-61.58-3.619-61.58-8.084C230.588,507.402,258.165,503.785,292.168,503.785z"/>
		<path fill-rule="evenodd" clip-rule="evenodd" fill="#EDEDEE" d="M292.168,503.945c33.137,0,60.007,3.527,60.007,7.877
			s-26.871,7.879-60.007,7.879c-33.135,0-60.007-3.529-60.007-7.879S259.033,503.945,292.168,503.945z"/>
		<path fill-rule="evenodd" clip-rule="evenodd" fill="#EAEBEC" d="M292.168,504.107c32.268,0,58.436,3.436,58.436,7.67
			c0,4.236-26.168,7.672-58.436,7.672c-32.266,0-58.434-3.436-58.434-7.672C233.734,507.543,259.902,504.107,292.168,504.107z"/>
		<path fill-rule="evenodd" clip-rule="evenodd" fill="#E8E8E9" d="M292.168,504.271c31.401,0,56.864,3.342,56.864,7.463
			s-25.462,7.463-56.864,7.463c-31.398,0-56.862-3.342-56.862-7.463S260.77,504.271,292.168,504.271z"/>
		<path fill-rule="evenodd" clip-rule="evenodd" fill="#E6E7E8" d="M292.168,504.434c30.532,0,55.292,3.248,55.292,7.258
			c0,4.006-24.761,7.258-55.292,7.258c-30.532,0-55.29-3.252-55.29-7.258C236.878,507.682,261.636,504.434,292.168,504.434z"/>
		<path fill-rule="evenodd" clip-rule="evenodd" fill="#E3E4E5" d="M292.168,504.596c29.663,0,53.721,3.156,53.721,7.049
			c0,3.896-24.058,7.053-53.721,7.053c-29.663,0-53.718-3.156-53.718-7.053C238.45,507.752,262.505,504.596,292.168,504.596z"/>
		<path fill-rule="evenodd" clip-rule="evenodd" fill="#E3E4E5" d="M292.168,504.756c28.796,0,52.148,3.064,52.148,6.846
			c0,3.779-23.353,6.846-52.148,6.846c-28.793,0-52.146-3.066-52.146-6.846C240.021,507.82,263.375,504.756,292.168,504.756z"/>
		<path fill-rule="evenodd" clip-rule="evenodd" fill="#E2E3E4" d="M292.168,504.918c27.927,0,50.577,2.975,50.577,6.641
			c0,3.664-22.65,6.639-50.577,6.639c-27.927,0-50.575-2.975-50.575-6.639C241.593,507.893,264.241,504.918,292.168,504.918z"/>
		<path fill-rule="evenodd" clip-rule="evenodd" fill="#DFE0E1" d="M292.168,505.08c27.06,0,49.003,2.881,49.003,6.432
			c0,3.553-21.943,6.432-49.003,6.432c-27.061,0-49.003-2.879-49.003-6.432C243.165,507.961,265.107,505.08,292.168,505.08z"/>
		<path fill-rule="evenodd" clip-rule="evenodd" fill="#DFE0E1" d="M292.168,505.242c26.191,0,47.431,2.789,47.431,6.227
			s-21.239,6.225-47.431,6.225s-47.432-2.787-47.432-6.225S265.977,505.242,292.168,505.242z"/>
		<path fill-rule="evenodd" clip-rule="evenodd" fill="#DDDFE0" d="M292.168,505.404c25.324,0,45.859,2.697,45.859,6.02
			c0,3.324-20.535,6.021-45.859,6.021c-25.322,0-45.86-2.697-45.86-6.021C246.308,508.102,266.846,505.404,292.168,505.404z"/>
		<path fill-rule="evenodd" clip-rule="evenodd" fill="#DBDCDD" d="M292.168,505.566c24.455,0,44.288,2.604,44.288,5.813
			c0,3.211-19.833,5.814-44.288,5.814c-24.456,0-44.288-2.604-44.288-5.814C247.88,508.17,267.712,505.566,292.168,505.566z"/>
		<path fill-rule="evenodd" clip-rule="evenodd" fill="#D9DBDC" d="M292.168,505.729c23.588,0,42.716,2.51,42.716,5.607
			c0,3.096-19.127,5.607-42.716,5.607c-23.586,0-42.714-2.512-42.714-5.607C249.454,508.238,268.582,505.729,292.168,505.729z"/>
		<path fill-rule="evenodd" clip-rule="evenodd" fill="#D9DBDC" d="M292.168,505.891c22.719,0,41.144,2.418,41.144,5.4
			s-18.425,5.4-41.144,5.4c-22.72,0-41.142-2.418-41.142-5.4S269.448,505.891,292.168,505.891z"/>
		<path fill-rule="evenodd" clip-rule="evenodd" fill="#D7D8DA" d="M292.168,506.051c21.85,0,39.573,2.328,39.573,5.197
			c0,2.867-17.723,5.193-39.573,5.193c-21.851,0-39.57-2.326-39.57-5.193C252.598,508.379,270.317,506.051,292.168,506.051z"/>
		<path fill-rule="evenodd" clip-rule="evenodd" fill="#D4D6D7" d="M292.168,506.215c20.983,0,38.001,2.234,38.001,4.988
			s-17.018,4.986-38.001,4.986c-20.984,0-37.999-2.232-37.999-4.986S271.184,506.215,292.168,506.215z"/>
		<path fill-rule="evenodd" clip-rule="evenodd" fill="#D4D6D7" d="M292.168,506.377c20.117,0,36.429,2.141,36.429,4.781
			s-16.312,4.783-36.429,4.783c-20.115,0-36.43-2.143-36.43-4.783S272.053,506.377,292.168,506.377z"/>
		<path fill-rule="evenodd" clip-rule="evenodd" fill="#D3D4D6" d="M292.168,506.539c19.248,0,34.857,2.049,34.857,4.574
			c0,2.527-15.609,4.576-34.857,4.576c-19.248,0-34.858-2.049-34.858-4.576C257.31,508.588,272.92,506.539,292.168,506.539z"/>
		<path fill-rule="evenodd" clip-rule="evenodd" fill="#D0D2D3" d="M292.168,506.701c18.378,0,33.286,1.957,33.286,4.369
			s-14.907,4.369-33.286,4.369c-18.379,0-33.286-1.957-33.286-4.369S273.789,506.701,292.168,506.701z"/>
		<path fill-rule="evenodd" clip-rule="evenodd" fill="#CFD0D2" d="M292.168,506.863c17.512,0,31.711,1.863,31.711,4.162
			s-14.199,4.162-31.711,4.162c-17.509,0-31.712-1.863-31.712-4.162S274.659,506.863,292.168,506.863z"/>
		<path fill-rule="evenodd" clip-rule="evenodd" fill="#CCCECF" d="M292.168,507.025c16.643,0,30.142,1.771,30.142,3.955
			c0,2.186-13.5,3.957-30.142,3.957c-16.643,0-30.14-1.771-30.14-3.957C262.028,508.797,275.525,507.025,292.168,507.025z"/>
		<path fill-rule="evenodd" clip-rule="evenodd" fill="#CCCECF" d="M292.168,507.188c15.776,0,28.568,1.678,28.568,3.75
			c0,2.068-12.792,3.75-28.568,3.75c-15.773,0-28.568-1.682-28.568-3.75C263.6,508.865,276.395,507.188,292.168,507.188z"/>
		<path fill-rule="evenodd" clip-rule="evenodd" fill="#CACCCE" d="M292.168,507.35c14.907,0,26.999,1.588,26.999,3.543
			c0,1.957-12.092,3.543-26.999,3.543c-14.907,0-26.997-1.586-26.997-3.543C265.171,508.938,277.261,507.35,292.168,507.35z"/>
		<path fill-rule="evenodd" clip-rule="evenodd" fill="#C8CACB" d="M292.168,507.512c14.041,0,25.424,1.494,25.424,3.336
			c0,1.844-11.384,3.338-25.424,3.338c-14.038,0-25.425-1.494-25.425-3.338C266.743,509.006,278.13,507.512,292.168,507.512z"/>
		<ellipse fill-rule="evenodd" clip-rule="evenodd" fill="#C8CACB" cx="292.168" cy="510.804" rx="23.853" ry="3.132"/>
		<path fill-rule="evenodd" clip-rule="evenodd" fill="#C5C7C9" d="M292.168,507.834c12.304,0,22.281,1.311,22.281,2.926
			s-9.977,2.924-22.281,2.924c-12.302,0-22.281-1.309-22.281-2.924S279.866,507.834,292.168,507.834z"/>
		<ellipse fill-rule="evenodd" clip-rule="evenodd" fill="#C4C5C7" cx="292.168" cy="510.715" rx="20.709" ry="2.719"/>
		<path fill-rule="evenodd" clip-rule="evenodd" fill="#C1C3C5" d="M292.168,508.158c10.568,0,19.137,1.125,19.137,2.514
			c0,1.387-8.569,2.512-19.137,2.512c-10.566,0-19.138-1.125-19.138-2.512C273.03,509.283,281.602,508.158,292.168,508.158z"/>
		<ellipse fill-rule="evenodd" clip-rule="evenodd" fill="#C1C3C5" cx="292.168" cy="510.626" rx="17.565" ry="2.306"/>
		<path fill-rule="evenodd" clip-rule="evenodd" fill="#C0C1C3" d="M292.168,508.482c8.83,0,15.994,0.941,15.994,2.1
			c0,1.16-7.164,2.1-15.994,2.1c-8.831,0-15.992-0.939-15.992-2.1C276.176,509.424,283.337,508.482,292.168,508.482z"/>
		<path fill-rule="evenodd" clip-rule="evenodd" fill="#BDBFC1" d="M292.168,508.645c7.963,0,14.422,0.85,14.422,1.895
			s-6.459,1.891-14.422,1.891c-7.961,0-14.42-0.846-14.42-1.891S284.207,508.645,292.168,508.645z"/>
		<ellipse fill-rule="evenodd" clip-rule="evenodd" fill="#BBBDBF" cx="292.168" cy="510.494" rx="12.85" ry="1.688"/>
	</g>
	<path fill-rule="evenodd" clip-rule="evenodd" fill="#BBBDBF" d="M292.168,511.93c6.212,0,11.278-0.664,11.278-1.48
		c0-0.814-5.066-1.48-11.278-1.48c-6.21,0-11.276,0.666-11.276,1.48C280.892,511.266,285.958,511.93,292.168,511.93z"/>
</g>
<g>
	<path d="M955.193,677.777v165.026c0,17.701-13.892,32.043-31.02,32.043H752.049c-17.138,0-31.022-14.342-31.022-32.043V677.777
		c0-17.69,13.885-32.044,31.022-32.044h172.125C941.302,645.733,955.193,660.087,955.193,677.777z"/>
	<g>
		<path fill-rule="evenodd" clip-rule="evenodd" fill="#F15A29" d="M841.322,707.99c-3.247-0.275-6.57-0.297-9.824,0.444
			c-50.208,11.396-61.758,62.321-49.159,96.873c3.241,8.902,7.626,18.527,16.688,27.266c1.544,2.653,3.767,5.037,6.79,7.056
			c-21.848-10.921-36.976-33.703-43.116-56.005c-4.731-17.183-2.565-39.681,6.982-54.646
			C783.464,707.38,819.85,694.525,841.322,707.99z"/>
		<radialGradient id="SVGID_3_" cx="813.5088" cy="707.3906" r="37.1821" gradientUnits="userSpaceOnUse">
			<stop  offset="0" style="stop-color:#005A9A"/>
			<stop  offset="1" style="stop-color:#003A61"/>
		</radialGradient>
		<path fill-rule="evenodd" clip-rule="evenodd" fill="url(#SVGID_3_)" d="M788.129,710.228c24.207-14.97,53.233-11.924,64.816,6.81
			c1.452,2.347,2.565,4.829,3.347,7.406c7.781-18.817,5.609-37.195-24.392-41.38c-11.321,1.464-22.52,5.3-32.854,11.694
			c-14.767,9.138-25.653,22.175-32.155,36.959C771.624,723.524,778.85,715.972,788.129,710.228z"/>
		<radialGradient id="SVGID_4_" cx="842.7939" cy="764.3652" r="66.9514" gradientUnits="userSpaceOnUse">
			<stop  offset="0" style="stop-color:#005A9A"/>
			<stop  offset="1" style="stop-color:#003A61"/>
		</radialGradient>
		<path fill-rule="evenodd" clip-rule="evenodd" fill="url(#SVGID_4_)" d="M868.628,751.269
			c-7.681,9.267-16.158,17.81-23.828,27.067c-19.972,24.105-37.178,62.44,9.628,67.963c-2.844,0.365-5.697,0.577-8.545,0.648
			c-7.476,0.365-14.939-0.293-22.186-1.916c-5.855-1.314-11.568-3.265-17.023-5.812c-0.135-0.085-0.267-0.175-0.394-0.262
			c-3.023-2.019-5.247-4.403-6.791-7.057c-8.587-14.749,3.79-37.934,17.471-54.434c1.054-1.271,2.122-2.531,3.2-3.782l0.051-0.028
			c6.867-7.96,14.191-15.506,20.904-23.606c6.472-7.815,12.649-17.117,16.455-26.311c7.777-18.824,5.611-37.197-24.393-41.382
			c9.637-1.24,19.353-0.752,28.71,1.344c5.853,1.315,11.57,3.267,17.025,5.821C899.289,702.642,884.874,731.664,868.628,751.269z"/>
		<path fill-rule="evenodd" clip-rule="evenodd" fill="#F15A29" d="M898.188,818.32c-24.209,14.973-53.233,11.924-64.815-6.801
			c-1.454-2.355-2.566-4.836-3.348-7.415c-7.778,18.824-5.612,37.198,24.391,41.382c11.318-1.463,22.518-5.3,32.855-11.694
			c14.767-9.139,25.653-22.177,32.151-36.958C914.692,805.025,907.467,812.577,898.188,818.32z"/>
	</g>
	<path opacity="0.15" fill="#FFFFFF" d="M950.759,681.461v66.447c-10.064,2.64-20.813,4.931-32.127,6.842
		c-3.582,0.605-7.23,1.171-10.934,1.693c-21.79,3.094-45.426,4.788-70.127,4.788c-27.489,0-53.677-2.107-77.476-5.896
		c-3.996-0.641-7.926-1.324-11.779-2.064c-8.328-1.572-16.319-3.365-23.921-5.363v-66.447c0-17.098,13.421-30.975,29.988-30.975
		h166.388C937.329,650.486,950.759,664.363,950.759,681.461z"/>
</g>
</svg>
