/* XPM */
static char * enki_xpm[] = {
"32 32 113 2",
"  	c None",
". 	c #003A62",
"+ 	c #003A61",
"@ 	c #003960",
"# 	c #003A60",
"$ 	c #003D69",
"% 	c #003D67",
"& 	c #003C64",
"* 	c #003B61",
"= 	c #003B60",
"- 	c #004371",
"; 	c #004370",
"> 	c #00416E",
", 	c #003F6A",
"' 	c #003D66",
") 	c #003B64",
"! 	c #003B63",
"~ 	c #003B62",
"{ 	c #004574",
"] 	c #004677",
"^ 	c #004779",
"/ 	c #004778",
"( 	c #004575",
"_ 	c #00406C",
": 	c #003C65",
"< 	c #00487A",
"[ 	c #004A7E",
"} 	c #004C80",
"| 	c #014C7F",
"1 	c #204D74",
"2 	c #104A76",
"3 	c #003F6B",
"4 	c #003E69",
"5 	c #003E67",
"6 	c #004473",
"7 	c #044B7D",
"8 	c #EE5A2B",
"9 	c #F15A29",
"0 	c #F05A29",
"a 	c #F15B28",
"b 	c #003961",
"c 	c #00426F",
"d 	c #00406B",
"e 	c #003F69",
"f 	c #00436F",
"g 	c #004676",
"h 	c #5D4F5D",
"i 	c #F15A28",
"j 	c #F25A2A",
"k 	c #004372",
"l 	c #00426E",
"m 	c #044270",
"n 	c #DE592E",
"o 	c #004472",
"p 	c #004270",
"q 	c #073F66",
"r 	c #E85A2C",
"s 	c #004879",
"t 	c #004777",
"u 	c #004474",
"v 	c #DC572D",
"w 	c #004B80",
"x 	c #004A7D",
"y 	c #00487B",
"z 	c #004D83",
"A 	c #004D82",
"B 	c #00497C",
"C 	c #005088",
"D 	c #004F87",
"E 	c #004F86",
"F 	c #004D84",
"G 	c #004C81",
"H 	c #00528C",
"I 	c #00518B",
"J 	c #005189",
"K 	c #004E84",
"L 	c #00548F",
"M 	c #005490",
"N 	c #00518A",
"O 	c #005693",
"P 	c #005694",
"Q 	c #005592",
"R 	c #00518C",
"S 	c #005896",
"T 	c #005997",
"U 	c #005794",
"V 	c #005591",
"W 	c #00558E",
"X 	c #005897",
"Y 	c #005998",
"Z 	c #005795",
"` 	c #00538E",
" .	c #F15929",
"..	c #F25928",
"+.	c #005089",
"@.	c #004E85",
"#.	c #004C82",
"$.	c #F25B2A",
"%.	c #004B7F",
"&.	c #374C67",
"*.	c #F25A29",
"=.	c #F15B29",
"-.	c #664D54",
";.	c #F05929",
">.	c #945044",
",.	c #4E4858",
"'.	c #F25A28",
").	c #F0592A",
"!.	c #133C5B",
"~.	c #D8572E",
"{.	c #0F3C5E",
"].	c #233F59",
"^.	c #DD572E",
"                            . + @ . # +                         ",
"                    $ % & * + = + + + + + *                     ",
"                - - ; > , ' + + + ) ! ~ + + @                   ",
"            { ] ^ ^ / ( - _ ' + + & % ' : ) ~                   ",
"          ( < [ } | 1 2 ] - 3 & + ! 3 , 4 5 '                   ",
"        6 < 7   8 9 9 0 a     5 + b c > _ d e                   ",
"      f g h i 9 9 9 j           ~ . 6 k ; l _                   ",
"      m n 9 9 9 9                   ] ( { o p                   ",
"    q r 9 9 9 9                     < s t ( u                   ",
"    v 9 9 9 9                     w [ x y ^                     ",
"    9 9 9 0                       z A } [ B                     ",
"  0 9 9 9                       C D E F G                       ",
"  9 9 9 9                       H I J D K                       ",
"j 9 9 9 9                     L M L H N                         ",
"9 9 9 9                       O P Q L R                         ",
"9 9 9 9                     O S T U V                           ",
"9 9 9 9                   W O X Y Z                             ",
"9 9 9 9                   ` V P U Q                             ",
" .9 9 ..                C H ` M M                               ",
"j 9 9 9               z E +.I H R                               ",
"  9 9 0               } z @.D C                                 ",
"  9 9 9             y x w #.z K                                 ",
"  $.9 9             / < B [ %.                                  ",
"    9 9  .          ( ] ^ < B                                   ",
"      9 9         c - 6 ( ] &.                            9     ",
"      *.9 =.      _ > p k 6 -.9                       9 ;.      ",
"        i 9       4 3 _ > c >.9 9 =.                9 9         ",
"          9 9     : % 4 , d ,.9 9 9 9 =.9 9 ..9 9 9 9           ",
"            j '.  . ! : ' % 4 9 9 9 9 9 9 9 9 9 9 9             ",
"              ).i !.+ + ~ ! &   '.9 9 9 9 9 9 9 ;.              ",
"                  ~.{.+ + + + + ].^.9 9 9 9                     ",
"                        b + + + + + +                           "};
