/* XPM */
static char *_____________[] = {
/* columns rows colors chars-per-pixel */
"32 32 12 1",
"  c black",
". c #532900",
"X c #804000",
"o c #CE822D",
"O c #DDA464",
"+ c #808080",
"@ c #FF8080",
"# c #E6B988",
"$ c #EFD3B6",
"% c #C0C0C0",
"& c gray100",
"* c None",
/* pixels */
"************     ***************",
"**********   X X    ************",
"********  ...X.X....  **********",
"******* .............. *********",
"****** ..XXXXXXXX...... ********",
"****** .XXXXXXXXXXXX.... *******",
"***    XXXXXXXXXXXXXX.... ******",
"*  oo XoooXXXXXXXXXXXX..     ***",
"* o#X o###ooooooooXXX.. ooooo **",
" o#.. o###########oXX..o$$$##o *",
" $#X. ###$$$$######oX.o$o..o##o ",
" #X. o## #$$$$$####oX.#o.o#$o#o ",
" oX o@# .###$#  ###oX.#..Xo$$#o ",
" oX @@@.ooo###  ###oX.$.Xo#o$#o ",
"* X @@@ooooooo .###oX.$Xo$$o#$o ",
"**  ##$$#ooooo@@@##oX.#.o$####o ",
"*** o##$$$$$$$@@@##oX.o#Xooo##o ",
"*** Xo############oX.. o#$$#oo *",
"**** Xoooo#######oXX..  oooo   *",
"***** .XXXoooooooXX..  *    .X *",
"******  ..XXXXXXX..  ***** ..XX ",
"********           ******* ..XXX",
"**   **** ..... XX. ******* ..XX",
"   #   * X     XX .  ****** ..X.",
" #   #     #  XX . %% ***** ..X ",
"   X # + #   #    +%& ***** .XX ",
" Ooo # + o XX  +++%&& **** .X.. ",
"* #oo# +   XXX ++%&&&     XX.. *",
"* ###o    Xooo ++%&&+ ..XX... **",
"* oooX  # #### ++%%+ ......  ***",
"**     * o###o ++++        *****",
"********           *************"
};
