<?xml version="1.0" encoding="UTF-8" standalone="no"?>
<svg
   xmlns:dc="http://purl.org/dc/elements/1.1/"
   xmlns:cc="http://creativecommons.org/ns#"
   xmlns:rdf="http://www.w3.org/1999/02/22-rdf-syntax-ns#"
   xmlns:svg="http://www.w3.org/2000/svg"
   xmlns="http://www.w3.org/2000/svg"
   xmlns:sodipodi="http://sodipodi.sourceforge.net/DTD/sodipodi-0.dtd"
   xmlns:inkscape="http://www.inkscape.org/namespaces/inkscape"
   width="1920"
   height="1408"
   viewBox="0 0 1920 1408"
   version="1.1"
   id="svg4"
   sodipodi:docname="download.svg"
   inkscape:version="0.92.2 5c3e80d, 2017-08-06">
  <metadata
     id="metadata10">
    <rdf:RDF>
      <cc:Work
         rdf:about="">
        <dc:format>image/svg+xml</dc:format>
        <dc:type
           rdf:resource="http://purl.org/dc/dcmitype/StillImage" />
        <dc:title></dc:title>
      </cc:Work>
    </rdf:RDF>
  </metadata>
  <defs
     id="defs8" />
  <sodipodi:namedview
     pagecolor="#ffffff"
     bordercolor="#666666"
     borderopacity="1"
     objecttolerance="10"
     gridtolerance="10"
     guidetolerance="10"
     inkscape:pageopacity="0"
     inkscape:pageshadow="2"
     inkscape:window-width="1920"
     inkscape:window-height="1051"
     id="namedview6"
     showgrid="false"
     fit-margin-top="0"
     fit-margin-left="0"
     fit-margin-right="0"
     fit-margin-bottom="0"
     inkscape:zoom="0.13169643"
     inkscape:cx="-1063.5932"
     inkscape:cy="640"
     inkscape:window-x="0"
     inkscape:window-y="0"
     inkscape:window-maximized="1"
     inkscape:current-layer="svg4" />
  <path
     d="m 1280,800 q 0,-14 -9,-23 -9,-9 -23,-9 H 1024 V 416 q 0,-13 -9.5,-22.5 Q 1005,384 992,384 H 800 q -13,0 -22.5,9.5 Q 768,403 768,416 V 768 H 544 q -13,0 -22.5,9.5 -9.5,9.5 -9.5,22.5 0,14 9,23 l 352,352 q 9,9 23,9 14,0 23,-9 l 351,-351 q 10,-12 10,-24 z m 640,224 q 0,159 -112.5,271.5 Q 1695,1408 1536,1408 H 448 Q 263,1408 131.5,1276.5 0,1145 0,960 0,830 70,720 140,610 258,555 256,525 256,512 256,300 406,150 556,0 768,0 q 156,0 285.5,87 129.5,87 188.5,231 71,-62 166,-62 106,0 181,75 75,75 75,181 0,76 -41,138 130,31 213.5,135.5 Q 1920,890 1920,1024 Z"
     id="path2"
     inkscape:connector-curvature="0"
     style="fill:#4d4d4d;fill-opacity:1" />
</svg>
