<?xml version="1.0" encoding="UTF-8" standalone="no"?>
<svg
   xmlns:dc="http://purl.org/dc/elements/1.1/"
   xmlns:cc="http://creativecommons.org/ns#"
   xmlns:rdf="http://www.w3.org/1999/02/22-rdf-syntax-ns#"
   xmlns:svg="http://www.w3.org/2000/svg"
   xmlns="http://www.w3.org/2000/svg"
   xmlns:sodipodi="http://sodipodi.sourceforge.net/DTD/sodipodi-0.dtd"
   xmlns:inkscape="http://www.inkscape.org/namespaces/inkscape"
   width="255.99998"
   height="242.9519"
   viewBox="0 0 255.99998 242.9519"
   version="1.1"
   id="svg865"
   sodipodi:docname="icon.svg"
   inkscape:version="0.92.2 5c3e80d, 2017-08-06">
  <metadata
     id="metadata871">
    <rdf:RDF>
      <cc:Work
         rdf:about="">
        <dc:format>image/svg+xml</dc:format>
        <dc:type
           rdf:resource="http://purl.org/dc/dcmitype/StillImage" />
        <dc:title></dc:title>
      </cc:Work>
    </rdf:RDF>
  </metadata>
  <defs
     id="defs869" />
  <sodipodi:namedview
     pagecolor="#ffffff"
     bordercolor="#666666"
     borderopacity="1"
     objecttolerance="10"
     gridtolerance="10"
     guidetolerance="10"
     inkscape:pageopacity="0"
     inkscape:pageshadow="2"
     inkscape:window-width="1920"
     inkscape:window-height="1051"
     id="namedview867"
     showgrid="false"
     inkscape:zoom="0.48604911"
     inkscape:cx="582.76693"
     inkscape:cy="768.29621"
     inkscape:window-x="1920"
     inkscape:window-y="0"
     inkscape:window-maximized="1"
     inkscape:current-layer="svg865"
     fit-margin-top="10"
     fit-margin-left="10"
     fit-margin-right="10"
     fit-margin-bottom="10" />
  <path
     d="m 256,170.02889 q 0,12.46145 -6.84615,20.76919 -6.84615,8.30763 -19,8.30763 -6.30769,0 -11.92307,-2.69223 -5.6154,-2.69234 -9.07693,-5.84613 -3.46154,-3.15389 -8.69231,-5.84623 -5.23077,-2.69223 -10.92307,-2.69223 -16.92309,0 -16.92309,19.07688 0,5.99994 2.46154,17.69231 2.46155,11.69226 2.3077,17.69231 v 0.7692 q -3.38461,0 -5.07693,0.15381 -5.23076,0.46156 -14.99999,1.76933 -9.76923,1.30766 -17.76923,2.07686 -8,0.7693 -15.07693,0.7693 -9.38461,0 -15.84615,-4.07702 -6.46155,-4.07691 -6.46155,-12.8461 0,-5.69231 2.69232,-10.92307 2.69231,-5.23075 5.84615,-8.69228 3.15384,-3.46153 5.84615,-9.07694 2.69231,-5.6154 2.69231,-11.92309 0,-12.15382 -8.30769,-18.99997 -8.30769,-6.84616 -20.76923,-6.84616 -12.92308,0 -22.000003,6.99997 -9.076924,6.99998 -9.076924,19.61535 0,6.61544 2.307693,12.76931 2.307693,6.15376 5.153846,9.92303 2.846154,3.76928 5.153847,8.15382 2.307692,4.38465 2.307692,7.76928 0,6.92306 -7.076924,13.69231 -5.692307,5.38457 -17.999999,5.38457 -14.615386,0 -37.692309,-3.69226 -1.3846149,-0.30774 -4.2307689,-0.61538 -2.846154,-0.30774 -4.230769,-0.61537 l -2,-0.30774 q -0.153846,0 -0.461539,-0.15382 Q 0,237.56733 0,237.4134 V 79.875015 q 0.3076921,0.153817 2.6923081,0.538468 2.384615,0.384542 5.230769,0.769193 2.8461529,0.384651 3.3076919,0.538468 23.076923,3.692366 37.692309,3.692366 12.307692,0 17.999999,-5.384678 7.076924,-6.769248 7.076924,-13.692312 0,-3.384624 -2.307692,-7.769167 -2.307693,-4.384651 -5.153847,-8.153925 -2.846153,-3.769167 -5.153846,-9.923038 -2.307693,-6.153871 -2.307693,-12.769194 0,-12.615485 9.076924,-19.6154576 9.076923,-6.9999731 22.153843,-6.9999731 12.3077,0 20.61539,6.8461562 8.30769,6.8461565 8.30769,18.9999735 0,6.307688 -2.69231,11.923092 -2.69231,5.615403 -5.84615,9.076936 -3.15384,3.461532 -5.84615,8.692285 -2.69232,5.230752 -2.69232,10.923064 0,8.769302 6.46155,12.846211 6.46154,4.076909 15.84615,4.076909 9.84615,0 27.6923,-2.307689 17.84617,-2.307688 25.07693,-2.61543 v 0.307742 q -0.15385,0.307634 -0.53846,2.692339 -0.38462,2.384597 -0.76923,5.230753 -0.38461,2.846156 -0.53846,3.307607 -3.69231,23.076986 -3.69231,37.692306 0,12.30775 5.38461,18.00006 6.76924,7.07688 13.69231,7.07688 3.38462,0 7.76923,-2.30769 4.38462,-2.30769 8.15385,-5.15384 3.76923,-2.84616 9.92307,-5.15385 6.15385,-2.30769 12.76924,-2.30769 12.61539,0 19.61538,9.07694 7,9.07694 7,22.00006 z"
     id="path863"
     style="fill:#4d4d4d;fill-opacity:1;stroke-width:0.99999994"
     inkscape:connector-curvature="0" />
</svg>
